<svg width="73" height="67" viewBox="0 0 73 67" fill="none" xmlns="http://www.w3.org/2000/svg">
<path fill-rule="evenodd" clip-rule="evenodd" d="M36.6901 48.8687L37.8029 42.3922L37.8747 42.0332C37.9283 41.7212 38.1024 41.4357 38.3647 41.2301C38.627 41.0245 38.9615 40.9111 39.3064 40.9111H40.1901C41.663 40.9111 43.0162 40.7667 44.2124 40.4819C45.4886 40.1783 46.6237 39.7054 47.5859 39.0774C48.6061 38.4115 49.4629 37.5507 50.133 36.5194C50.84 35.4314 51.3589 34.1215 51.676 32.6265C51.9561 31.3063 52.0086 30.1245 51.8326 29.1133C51.6462 28.0452 51.1979 27.1338 50.5002 26.4037C50.0772 25.9615 49.5358 25.5783 48.8914 25.2648L48.8762 25.2573L48.8758 25.2403C49.1009 23.9225 49.0924 22.8233 48.8502 21.877C48.6068 20.9287 48.1142 20.0753 47.3429 19.2688C45.7449 17.5976 42.8384 16.75 38.7044 16.75H27.3509C26.9714 16.75 26.6031 16.8746 26.3144 17.101C26.0257 17.3274 25.8344 17.6419 25.7749 17.9862L21.0475 45.5003C21.0043 45.7513 21.0828 46.0064 21.2629 46.1989C21.443 46.3926 21.7049 46.5036 21.9817 46.5036H29.0252L29.0189 46.5343L28.5352 49.3495C28.498 49.5683 28.5664 49.7903 28.7231 49.9584C28.8797 50.1267 29.1078 50.2237 29.3489 50.2237H35.2565C35.588 50.2237 35.9091 50.1147 36.161 49.917C36.4129 49.7193 36.5803 49.4451 36.632 49.1449L36.6901 48.8687Z" fill="#27346A"/>
<path fill-rule="evenodd" clip-rule="evenodd" d="M48.9046 25.2413C48.8707 25.4403 48.8332 25.6428 48.7885 25.8515C47.2917 32.9069 42.1692 35.346 35.6269 35.346H32.2954C31.4962 35.346 30.8213 35.8801 30.6967 36.6047L28.5071 49.3457C28.4256 49.8204 28.8256 50.25 29.349 50.25H35.2571C35.9562 50.25 36.5515 49.7832 36.6604 49.149L36.7185 48.8734L37.8313 42.3963L37.9032 42.0384C38.0122 41.4043 38.6075 40.9375 39.3065 40.9375H40.1902C45.9136 40.9375 50.3951 38.8032 51.7048 32.6313C52.2517 30.0524 51.9689 27.8997 50.522 26.3862C50.0844 25.9287 49.5397 25.55 48.9046 25.2413Z" fill="#2790C3"/>
<path fill-rule="evenodd" clip-rule="evenodd" d="M47.3376 24.6682C47.1096 24.6067 46.874 24.5518 46.6311 24.5023C46.3881 24.4527 46.1385 24.409 45.8818 24.3711C44.9828 24.2383 43.9999 24.1748 42.9454 24.1748H34.0461C33.8277 24.1748 33.6193 24.2205 33.4326 24.3025C33.0222 24.4832 32.7175 24.84 32.6427 25.276L30.7511 36.2834L30.6967 36.6047C30.8213 35.8801 31.4962 35.346 32.2954 35.346H35.6269C42.1692 35.346 47.2917 32.9069 48.7885 25.8515C48.8332 25.6428 48.8707 25.4403 48.9046 25.2413C48.5266 25.0575 48.1156 24.899 47.6744 24.7645C47.5639 24.7307 47.4518 24.6986 47.3376 24.6682Z" fill="#1E1E1E"/>
</svg>
